#N canvas 913 47 451 700 10;
#X declare -lib zexy;
#X declare -lib moocow;
#X msg 183 128 devicename /dev/ttyUSB0;
#X msg 129 128 close;
#X floatatom 349 128 5 0 255 0 - - -;
#X obj 183 307 touche_detector table1;
#X obj 215 256 bng 32 250 50 0 empty empty empty 17 7 0 10 -262144
-1 -1;
#X obj 183 361 hradio 64 1 0 4 empty empty empty 0 -8 0 10 -262144
-1 -1 0;
#X obj 183 164 touche_serial;
#X floatatom 183 196 5 0 0 0 - - -;
#X floatatom 258 195 5 0 0 0 - - -;
#X obj 250 256 bng 32 250 50 0 empty empty empty 17 7 0 10 -262144
-1 -1;
#X obj 285 256 bng 32 250 50 0 empty empty empty 17 7 0 10 -262144
-1 -1;
#X obj 320 256 bng 32 250 50 0 empty empty empty 17 7 0 10 -262144
-1 -1;
#X text 213 235 record gestures;
#X text 180 429 detected gestures;
#X text 92 195 peak position;
#X text 389 127 0 = no smoothing \, fast updates;
#X text 390 115 signal smoothing (0..255);
#X text 389 140 255 = smooth signal \, very slow updates;
#X obj 349 67 loadbang;
#X msg 349 96 128;
#X text 296 194 peak value;
#X connect 0 0 6 0;
#X connect 1 0 6 0;
#X connect 2 0 6 0;
#X connect 3 0 5 0;
#X connect 4 0 3 1;
#X connect 6 0 7 0;
#X connect 6 1 8 0;
#X connect 7 0 3 0;
#X connect 9 0 3 2;
#X connect 10 0 3 3;
#X connect 11 0 3 4;
#X connect 18 0 19 0;
#X connect 19 0 2 0;
