#N canvas 2 47 1362 700 10;
#X declare -lib zexy;
#X obj 54 143 int;
#X obj 39 167 -;
#X obj 116 143 int;
#X obj 101 167 -;
#X obj 39 192 abs;
#X obj 101 190 abs;
#X msg 39 220 \$1 0;
#X msg 101 220 \$1 1;
#X obj 176 145 int;
#X obj 161 169 -;
#X obj 238 145 int;
#X obj 223 169 -;
#X obj 161 194 abs;
#X obj 223 192 abs;
#X msg 161 222 \$1 2;
#X msg 223 222 \$1 3;
#X obj 12 315 unpack f f;
#X obj 39 262 tabwrite \$1;
#X obj 12 66 t b f;
#X obj 12 290 tabminmax \$1;
#X obj 54 35 inlet;
#X obj 12 35 inlet;
#X obj 303 62 table \$1 4;
#X obj 303 35 import zexy;
#X obj 54 61 bang;
#X obj 116 35 inlet;
#X obj 116 61 bang;
#X obj 176 35 inlet;
#X obj 176 61 bang;
#X obj 238 35 inlet;
#X obj 238 61 bang;
#X obj 69 347 outlet;
#X connect 0 0 1 1;
#X connect 1 0 4 0;
#X connect 2 0 3 1;
#X connect 3 0 5 0;
#X connect 4 0 6 0;
#X connect 5 0 7 0;
#X connect 6 0 17 0;
#X connect 7 0 17 0;
#X connect 8 0 9 1;
#X connect 9 0 12 0;
#X connect 10 0 11 1;
#X connect 11 0 13 0;
#X connect 12 0 14 0;
#X connect 13 0 15 0;
#X connect 14 0 17 0;
#X connect 15 0 17 0;
#X connect 16 1 31 0;
#X connect 18 0 19 0;
#X connect 18 1 10 1;
#X connect 18 1 11 0;
#X connect 18 1 8 1;
#X connect 18 1 9 0;
#X connect 18 1 2 1;
#X connect 18 1 3 0;
#X connect 18 1 0 1;
#X connect 18 1 1 0;
#X connect 19 0 16 0;
#X connect 20 0 24 0;
#X connect 21 0 18 0;
#X connect 24 0 0 0;
#X connect 25 0 26 0;
#X connect 26 0 2 0;
#X connect 27 0 28 0;
#X connect 28 0 8 0;
#X connect 29 0 30 0;
#X connect 30 0 10 0;
